<?xml version="1.0" standalone="no"?>
<!DOCTYPE svg PUBLIC "-//W3C//DTD SVG 20010904//EN"
 "http://www.w3.org/TR/2001/REC-SVG-20010904/DTD/svg10.dtd">
<svg version="1.0" xmlns="http://www.w3.org/2000/svg"
 width="512.000000pt" height="512.000000pt" viewBox="0 0 512.000000 512.000000"
 preserveAspectRatio="xMidYMid meet">
<metadata>
Created by potrace 1.14, written by Peter Selinger 2001-2017
</metadata>
<g transform="translate(0.000000,512.000000) scale(0.100000,-0.100000)"
fill="#000000" stroke="none">
<path d="M3240 4989 c-105 -20 -217 -105 -262 -198 -13 -27 -36 -57 -51 -66
-73 -44 -167 -175 -182 -254 -2 -13 -7 -26 -9 -29 -3 -2 -33 1 -68 7 -35 6
-76 13 -93 16 -16 3 -41 7 -55 10 -28 6 -31 6 -195 35 -194 34 -279 49 -300
53 -11 3 -42 8 -68 11 -27 4 -59 10 -70 12 -33 8 -51 11 -212 38 -144 25 -170
30 -225 41 -14 2 -41 7 -60 10 -19 3 -57 10 -85 15 -27 5 -67 12 -87 14 -21 3
-57 10 -80 15 -24 5 -63 13 -88 16 -25 4 -67 11 -95 16 -27 5 -63 12 -80 15
-16 2 -76 13 -133 23 -75 14 -105 16 -107 7 -4 -9 -19 -92 -40 -211 -5 -30
-123 -703 -171 -970 -13 -77 -27 -153 -30 -170 -2 -16 -11 -66 -19 -110 -8
-44 -17 -100 -20 -125 -4 -24 -8 -47 -10 -50 -2 -3 -6 -23 -9 -45 -4 -22 -13
-76 -22 -120 -8 -44 -17 -96 -20 -115 -7 -48 -10 -66 -23 -135 -6 -33 -14 -73
-16 -90 -3 -16 -12 -66 -20 -110 -8 -44 -23 -132 -35 -195 -11 -63 -22 -126
-24 -140 -3 -14 -12 -65 -20 -115 -9 -49 -18 -100 -20 -112 -3 -11 -8 -43 -12
-70 -6 -46 -8 -56 -19 -105 -2 -12 -7 -40 -10 -63 -3 -22 -8 -47 -10 -55 -2
-8 -7 -31 -10 -50 -9 -55 -13 -75 -40 -235 -14 -82 -28 -160 -30 -172 -4 -26
12 -30 245 -67 19 -3 44 -7 55 -10 11 -2 40 -7 65 -11 25 -4 54 -9 65 -11 25
-5 291 -53 325 -58 14 -3 102 -18 195 -35 94 -16 186 -33 205 -36 19 -3 58
-10 85 -15 50 -9 263 -47 320 -56 17 -3 41 -7 55 -10 14 -3 42 -8 62 -11 43
-6 42 -4 107 -253 135 -515 139 -530 154 -530 7 0 46 9 87 21 41 11 83 22 92
24 10 2 118 31 240 64 123 33 410 110 638 171 228 60 438 117 465 125 28 8
129 35 225 60 96 26 225 60 285 76 61 16 160 43 220 59 229 60 256 68 258 72
5 8 45 78 285 493 141 242 268 465 285 495 16 30 35 62 42 70 6 8 21 35 33 60
l21 45 -40 145 c-22 80 -54 197 -70 260 -17 63 -44 165 -61 225 -16 61 -33
126 -38 145 -5 19 -22 85 -38 145 -17 61 -39 144 -50 185 -40 146 -225 840
-312 1163 -48 180 -90 331 -93 333 -3 3 -83 -15 -178 -41 -94 -26 -179 -48
-188 -50 -9 -2 -117 -31 -240 -64 -124 -33 -226 -59 -228 -58 -1 2 13 25 33
52 62 87 82 200 56 305 -48 192 -237 314 -432 279z"/>
</g>
</svg>
